<?xml version="1.0" standalone="no"?>
<!DOCTYPE svg PUBLIC "-//W3C//DTD SVG 20010904//EN"
 "http://www.w3.org/TR/2001/REC-SVG-20010904/DTD/svg10.dtd">
<svg version="1.0" xmlns="http://www.w3.org/2000/svg"
 width="700.000000pt" height="700.000000pt" viewBox="0 0 700.000000 700.000000"
 preserveAspectRatio="xMidYMid meet">
<metadata>
Created by potrace 1.11, written by Peter Selinger 2001-2013
</metadata>
<g transform="translate(0.000000,700.000000) scale(0.100000,-0.100000)"
fill="#000000" stroke="none">
<path d="M2290 6835 l0 -165 -457 0 c-252 0 -476 -5 -498 -10 -22 -5 -52 -11
-67 -14 -15 -2 -56 -17 -90 -32 -217 -96 -365 -283 -409 -517 -8 -46 -11 -763
-11 -2747 0 -1477 2 -2711 6 -2744 15 -135 95 -302 192 -400 92 -92 214 -158
359 -194 17 -4 1004 -7 2195 -7 2065 0 2168 1 2220 18 149 49 237 103 328 203
96 104 161 241 178 370 9 75 9 5377 0 5467 -24 233 -187 451 -412 550 -121 53
-165 57 -660 57 l-454 0 0 165 0 165 -1210 0 -1210 0 0 -165z m2126 -124 c6
-1 10 -63 10 -183 l-1 -183 -925 0 -925 0 -1 180 c0 99 0 182 2 185 2 4 1805
5 1840 1z m-2126 -491 l0 -165 1207 0 1208 1 5 164 5 165 450 0 c403 -1 456
-3 505 -18 115 -38 216 -133 262 -247 l22 -55 1 -2720 c0 -2553 -1 -2723 -18
-2776 -35 -117 -144 -224 -267 -265 -52 -18 -153 -18 -2170 -18 -2355 0 -2162
-5 -2274 69 -52 35 -110 96 -135 143 -7 13 -20 48 -30 79 -17 53 -18 198 -16
2772 l1 2716 22 55 c57 142 191 246 337 262 17 2 222 3 457 3 l428 0 0 -165z"/>
<path d="M2994 4299 c-102 -19 -201 -94 -247 -187 -20 -40 -46 -124 -63 -207
-2 -11 -33 -137 -68 -280 -69 -279 -76 -295 -138 -295 -38 0 -65 31 -102 117
-16 37 -40 93 -53 123 -14 30 -34 77 -45 104 -48 122 -126 208 -226 248 -53
21 -74 23 -299 25 l-243 3 0 -144 0 -144 215 1 c175 0 219 -3 238 -15 14 -10
42 -61 76 -139 131 -302 127 -294 191 -360 163 -165 447 -127 565 76 23 40 42
100 71 225 20 87 19 81 49 200 14 58 28 113 30 124 43 200 65 246 119 246 59
0 71 -17 102 -140 83 -339 160 -626 178 -665 80 -175 308 -255 483 -170 90 45
137 100 204 241 45 94 66 127 87 138 48 25 55 22 146 -73 113 -117 274 -144
421 -72 77 38 119 84 218 236 39 62 83 120 96 130 21 16 48 18 257 18 l234 -1
0 145 0 145 -262 -5 c-294 -5 -315 -8 -403 -75 -36 -27 -79 -80 -151 -187 -58
-85 -111 -152 -124 -157 -36 -13 -68 2 -111 53 -84 100 -172 140 -302 135 -65
-2 -94 -8 -139 -30 -102 -49 -140 -99 -248 -328 -34 -72 -106 -85 -143 -26 -8
13 -54 178 -102 368 -47 190 -98 371 -112 402 -65 145 -233 229 -399 197z"/>
<path d="M1510 1696 l0 -142 804 0 805 -1 -2 141 -2 141 -802 2 -803 1 0 -142z"/>
<path d="M1538 1142 l-28 -3 0 -138 c0 -136 0 -139 23 -142 18 -3 3103 -3
3172 0 20 1 21 8 21 141 l1 140 -76 0 c-515 3 -3093 4 -3113 2z"/>
</g>
</svg>
